<?xml version="1.0" encoding="UTF-8" standalone="no"?>
<!-- Created with Inkscape (http://www.inkscape.org/) -->

<svg
   xmlns:dc="http://purl.org/dc/elements/1.1/"
   xmlns:cc="http://creativecommons.org/ns#"
   xmlns:rdf="http://www.w3.org/1999/02/22-rdf-syntax-ns#"
   xmlns:svg="http://www.w3.org/2000/svg"
   xmlns="http://www.w3.org/2000/svg"
   xmlns:sodipodi="http://sodipodi.sourceforge.net/DTD/sodipodi-0.dtd"
   xmlns:inkscape="http://www.inkscape.org/namespaces/inkscape"
   width="5.2067299mm"
   height="5.74543mm"
   viewBox="0 0 5.2067299 5.74543"
   version="1.1"
   id="svg1873"
   inkscape:version="0.92.2 (5c3e80d, 2017-08-06)"
   sodipodi:docname="calendar.svg">
  <defs
     id="defs1867" />
  <sodipodi:namedview
     id="base"
     pagecolor="#ffffff"
     bordercolor="#666666"
     borderopacity="1.0"
     inkscape:pageopacity="0.0"
     inkscape:pageshadow="2"
     inkscape:zoom="2.8"
     inkscape:cx="-42.754287"
     inkscape:cy="-47.472782"
     inkscape:document-units="mm"
     inkscape:current-layer="layer1"
     showgrid="false"
     inkscape:window-width="1920"
     inkscape:window-height="1017"
     inkscape:window-x="1912"
     inkscape:window-y="-8"
     inkscape:window-maximized="1"
     fit-margin-top="0"
     fit-margin-left="0"
     fit-margin-right="0"
     fit-margin-bottom="0" />
  <metadata
     id="metadata1870">
    <rdf:RDF>
      <cc:Work
         rdf:about="">
        <dc:format>image/svg+xml</dc:format>
        <dc:type
           rdf:resource="http://purl.org/dc/dcmitype/StillImage" />
        <dc:title></dc:title>
      </cc:Work>
    </rdf:RDF>
  </metadata>
  <g
     inkscape:label="Calque 1"
     inkscape:groupmode="layer"
     id="layer1"
     transform="translate(-103.22997,-145.96062)">
    <path
       inkscape:connector-curvature="0"
       style="clip-rule:evenodd;fill:#f8a929;fill-rule:evenodd;stroke-width:0.26458332"
       d="m 108.16709,151.70605 h -4.66778 c -0.14869,0 -0.26934,-0.12065 -0.26934,-0.26935 v -4.66778 c 0,-0.14869 0.12065,-0.26934 0.26934,-0.26934 h 0.44873 v 0.26934 c 0,0.29739 0.2413,0.53869 0.5387,0.53869 0.29765,0 0.53869,-0.2413 0.53869,-0.53869 v -0.26934 h 0.26908 v 0.26934 c 0,0.29739 0.2413,0.53869 0.53869,0.53869 0.29766,0 0.53869,-0.2413 0.53869,-0.53869 v -0.26934 h 0.26935 v 0.26934 c 0,0.29739 0.24103,0.53869 0.53869,0.53869 0.29766,0 0.53869,-0.2413 0.53869,-0.53869 v -0.26934 h 0.44874 c 0.14869,0 0.26934,0.12065 0.26934,0.26934 v 4.66805 c -2.6e-4,0.14843 -0.12065,0.26908 -0.26961,0.26908 m -0.71808,-3.68062 h -3.23162 c -0.1487,0 -0.26935,0.12065 -0.26935,0.26934 0,0.1487 0.12065,0.26935 0.26935,0.26935 h 3.23162 c 0.1487,0 0.26935,-0.12039 0.26935,-0.26935 0,-0.14869 -0.12039,-0.26934 -0.26935,-0.26934 m 0,1.16708 h -3.23162 c -0.1487,0 -0.26935,0.12065 -0.26935,0.26934 0,0.1487 0.12065,0.26935 0.26935,0.26935 h 3.23162 c 0.1487,0 0.26935,-0.12065 0.26935,-0.26935 0,-0.14869 -0.12039,-0.26934 -0.26935,-0.26934 m 0.045,1.16707 h -3.32158 c -0.12382,0 -0.22463,0.10028 -0.22463,0.22437 0,0.12409 0.10054,0.22437 0.22463,0.22437 h 3.32132 c 0.12382,0 0.22436,-0.10028 0.22436,-0.22437 0,-0.12409 -0.10027,-0.22437 -0.2241,-0.22437 m -0.31432,-3.32158 c -0.1487,0 -0.26935,-0.12038 -0.26935,-0.26934 v -0.53869 c 0,-0.1487 0.12039,-0.26935 0.26935,-0.26935 0.14896,0 0.26934,0.12065 0.26934,0.26935 v 0.53869 c 0,0.14896 -0.12038,0.26934 -0.26934,0.26934 m -1.34647,0 c -0.14869,0 -0.26934,-0.12038 -0.26934,-0.26934 v -0.53869 c 0,-0.1487 0.12038,-0.26935 0.26934,-0.26935 0.14896,0 0.26935,0.12065 0.26935,0.26935 v 0.53869 c 0,0.14896 -0.12065,0.26934 -0.26935,0.26934 m -1.34673,0 c -0.14869,0 -0.26934,-0.12038 -0.26934,-0.26934 v -0.53869 c 0,-0.1487 0.12065,-0.26935 0.26934,-0.26935 0.1487,0 0.26935,0.12065 0.26935,0.26935 v 0.53869 c 0,0.14896 -0.12039,0.26934 -0.26935,0.26934"
       id="path184" />
  </g>
</svg>
