<?xml version="1.0" encoding="UTF-8" standalone="no"?>
<!-- Created with Inkscape (http://www.inkscape.org/) -->

<svg
   xmlns:dc="http://purl.org/dc/elements/1.1/"
   xmlns:cc="http://creativecommons.org/ns#"
   xmlns:rdf="http://www.w3.org/1999/02/22-rdf-syntax-ns#"
   xmlns:svg="http://www.w3.org/2000/svg"
   xmlns="http://www.w3.org/2000/svg"
   xmlns:sodipodi="http://sodipodi.sourceforge.net/DTD/sodipodi-0.dtd"
   xmlns:inkscape="http://www.inkscape.org/namespaces/inkscape"
   width="4.5833702mm"
   height="5.2384849mm"
   viewBox="0 0 4.5833702 5.2384849"
   version="1.1"
   id="svg9272"
   inkscape:version="0.92.2 (5c3e80d, 2017-08-06)"
   sodipodi:docname="configuration.svg">
  <defs
     id="defs9266" />
  <sodipodi:namedview
     id="base"
     pagecolor="#ffffff"
     bordercolor="#666666"
     borderopacity="1.0"
     inkscape:pageopacity="0.0"
     inkscape:pageshadow="2"
     inkscape:zoom="0.35"
     inkscape:cx="947.23291"
     inkscape:cy="-647.24336"
     inkscape:document-units="mm"
     inkscape:current-layer="layer1"
     showgrid="false"
     fit-margin-top="0"
     fit-margin-left="0"
     fit-margin-right="0"
     fit-margin-bottom="0"
     inkscape:window-width="1920"
     inkscape:window-height="1017"
     inkscape:window-x="-8"
     inkscape:window-y="-8"
     inkscape:window-maximized="1" />
  <metadata
     id="metadata9269">
    <rdf:RDF>
      <cc:Work
         rdf:about="">
        <dc:format>image/svg+xml</dc:format>
        <dc:type
           rdf:resource="http://purl.org/dc/dcmitype/StillImage" />
        <dc:title></dc:title>
      </cc:Work>
    </rdf:RDF>
  </metadata>
  <g
     inkscape:label="Calque 1"
     inkscape:groupmode="layer"
     id="layer1"
     transform="translate(267.63097,27.654957)">
    <path
       inkscape:connector-curvature="0"
       style="clip-rule:evenodd;fill:#333333;fill-rule:evenodd;stroke-width:0.26458332"
       d="m -263.2934,-24.953826 h -0.4908 c -0.13546,0 -0.24553,-0.110066 -0.24553,-0.245533 v -0.982133 c 0,-0.135732 0.11007,-0.245534 0.24553,-0.245534 h 0.4908 c 0.136,0 0.2458,0.110067 0.2458,0.245534 v 0.982133 c 0,0.135731 -0.1098,0.245533 -0.2458,0.245533 m -0.49106,-2.455598 c 0,-0.135731 0.11006,-0.245533 0.2458,-0.245533 0.13573,0 0.24526,0.110067 0.24526,0.245533 v 0.7366 h -0.4908 v -0.7366 z m -1.30942,3.765286 h -0.49107 c -0.13573,0 -0.2458,-0.110067 -0.2458,-0.245534 v -0.982133 c 0,-0.135467 0.11007,-0.245533 0.2458,-0.245533 h 0.49107 c 0.13573,0 0.24553,0.110066 0.24553,0.245533 v 0.982133 c 0,0.135467 -0.1098,0.245534 -0.24553,0.245534 m -0.49107,-3.765286 c 0,-0.135731 0.1098,-0.245533 0.2458,-0.245533 0.13546,0 0.24553,0.110067 0.24553,0.245533 v 2.046288 h -0.49107 v -2.046288 z m -1.30969,3.110442 h -0.4908 c -0.13573,0 -0.24553,-0.110067 -0.24553,-0.245533 v -0.982134 c 0,-0.135731 0.1098,-0.245533 0.24553,-0.245533 h 0.4908 c 0.136,0 0.2458,0.110067 0.2458,0.245533 v 0.982134 c -2.7e-4,0.135731 -0.11007,0.245533 -0.2458,0.245533 m -0.49107,-3.110442 c 0,-0.135731 0.10981,-0.245533 0.24554,-0.245533 0.13599,0 0.24553,0.110067 0.24553,0.245533 v 1.391444 h -0.4908 v -1.391444 z m 0.49107,4.747419 c 0,0.135731 -0.10954,0.245533 -0.24553,0.245533 -0.13573,0 -0.24554,-0.110066 -0.24554,-0.245533 v -1.391444 h 0.49081 v 1.391444 z m 1.80076,0 c 0,0.135731 -0.11007,0.245533 -0.24554,0.245533 -0.13599,0 -0.2458,-0.110066 -0.2458,-0.245533 v -0.7366 h 0.49107 v 0.7366 z m 1.80048,0 c 0,0.135731 -0.10953,0.245533 -0.24526,0.245533 -0.13574,0 -0.2458,-0.110066 -0.2458,-0.245533 v -2.046287 h 0.4908 v 2.046287 z"
       id="path704" />
  </g>
</svg>
