<?xml version="1.0" encoding="UTF-8" standalone="no"?>
<!-- Created with Inkscape (http://www.inkscape.org/) -->

<svg
   xmlns:dc="http://purl.org/dc/elements/1.1/"
   xmlns:cc="http://creativecommons.org/ns#"
   xmlns:rdf="http://www.w3.org/1999/02/22-rdf-syntax-ns#"
   xmlns:svg="http://www.w3.org/2000/svg"
   xmlns="http://www.w3.org/2000/svg"
   xmlns:sodipodi="http://sodipodi.sourceforge.net/DTD/sodipodi-0.dtd"
   xmlns:inkscape="http://www.inkscape.org/namespaces/inkscape"
   width="6.61061mm"
   height="7.98698mm"
   viewBox="0 0 6.61061 7.98698"
   version="1.1"
   id="svg8706"
   inkscape:version="0.92.2 (5c3e80d, 2017-08-06)"
   sodipodi:docname="delete.svg">
  <defs
     id="defs8700" />
  <sodipodi:namedview
     id="base"
     pagecolor="#ffffff"
     bordercolor="#666666"
     borderopacity="1.0"
     inkscape:pageopacity="0.0"
     inkscape:pageshadow="2"
     inkscape:zoom="0.35"
     inkscape:cx="-451.79323"
     inkscape:cy="15.093493"
     inkscape:document-units="mm"
     inkscape:current-layer="layer1"
     showgrid="false"
     fit-margin-top="0"
     fit-margin-left="0"
     fit-margin-right="0"
     fit-margin-bottom="0"
     inkscape:window-width="1920"
     inkscape:window-height="1017"
     inkscape:window-x="-8"
     inkscape:window-y="-8"
     inkscape:window-maximized="1" />
  <metadata
     id="metadata8703">
    <rdf:RDF>
      <cc:Work
         rdf:about="">
        <dc:format>image/svg+xml</dc:format>
        <dc:type
           rdf:resource="http://purl.org/dc/dcmitype/StillImage" />
        <dc:title></dc:title>
      </cc:Work>
    </rdf:RDF>
  </metadata>
  <g
     inkscape:label="Calque 1"
     inkscape:groupmode="layer"
     id="layer1"
     transform="translate(-102.52803,-144.83984)">
    <path
       inkscape:connector-curvature="0"
       style="clip-rule:evenodd;fill:#333333;fill-rule:evenodd;stroke-width:0.26458332"
       d="m 102.52803,146.07915 c 0,-0.22807 0.18494,-0.41301 0.41328,-0.41301 h 2.0656 v -0.41328 c 0,-0.22807 0.18468,-0.41302 0.41328,-0.41302 h 0.82629 c 0.22807,0 0.41301,0.18495 0.41301,0.41328 v 0.41328 h 2.06587 c 0.22834,0 0.41328,0.18495 0.41328,0.41302 v 0.41328 h -6.60982 v -0.41355 z m 6.1968,1.23931 v 0.8263 4.26878 c 0,0.22834 -0.18494,0.41328 -0.41328,0.41328 h -4.95749 c -0.22781,0 -0.41302,-0.18494 -0.41302,-0.41328 v -4.26878 -0.8263 -0.41328 h 5.78353 v 0.41328 z m -4.1312,0.8263 c 0,-0.22834 -0.18495,-0.41328 -0.41328,-0.41328 -0.22834,0 -0.41328,0.18494 -0.41328,0.41328 v 3.44275 c 0,0.22807 0.18494,0.41328 0.41328,0.41328 0.22807,0 0.41328,-0.18494 0.41328,-0.41328 z m 1.65232,0 c 0,-0.22834 -0.18468,-0.41328 -0.41328,-0.41328 -0.22807,0 -0.41328,0.18494 -0.41328,0.41328 v 3.44275 c 0,0.22807 0.18495,0.41328 0.41328,0.41328 0.22834,0 0.41328,-0.18494 0.41328,-0.41328 z m 1.65285,0 c 0,-0.22834 -0.18521,-0.41328 -0.41328,-0.41328 -0.22833,0 -0.41328,0.18494 -0.41328,0.41328 v 3.44275 c 0,0.22807 0.18468,0.41328 0.41328,0.41328 0.22781,0 0.41328,-0.18494 0.41328,-0.41328 z"
       id="path242" />
  </g>
</svg>
