<?xml version="1.0" encoding="UTF-8" standalone="no"?>
<!-- Created with Inkscape (http://www.inkscape.org/) -->

<svg
   xmlns:dc="http://purl.org/dc/elements/1.1/"
   xmlns:cc="http://creativecommons.org/ns#"
   xmlns:rdf="http://www.w3.org/1999/02/22-rdf-syntax-ns#"
   xmlns:svg="http://www.w3.org/2000/svg"
   xmlns="http://www.w3.org/2000/svg"
   xmlns:sodipodi="http://sodipodi.sourceforge.net/DTD/sodipodi-0.dtd"
   xmlns:inkscape="http://www.inkscape.org/namespaces/inkscape"
   width="32"
   height="32"
   viewBox="0 0 8.4666664 8.4666665"
   version="1.1"
   id="svg3354"
   inkscape:version="0.92.2 (5c3e80d, 2017-08-06)"
   sodipodi:docname="detected-selected.svg">
  <defs
     id="defs3348" />
  <sodipodi:namedview
     id="base"
     pagecolor="#ffffff"
     bordercolor="#666666"
     borderopacity="1.0"
     inkscape:pageopacity="0.0"
     inkscape:pageshadow="2"
     inkscape:zoom="7.9195959"
     inkscape:cx="-51.511853"
     inkscape:cy="9.7425937"
     inkscape:document-units="mm"
     inkscape:current-layer="layer1"
     showgrid="false"
     fit-margin-top="0"
     fit-margin-left="0"
     fit-margin-right="0"
     fit-margin-bottom="0"
     inkscape:window-width="1920"
     inkscape:window-height="1017"
     inkscape:window-x="-8"
     inkscape:window-y="-8"
     inkscape:window-maximized="1"
     units="px" />
  <metadata
     id="metadata3351">
    <rdf:RDF>
      <cc:Work
         rdf:about="">
        <dc:format>image/svg+xml</dc:format>
        <dc:type
           rdf:resource="http://purl.org/dc/dcmitype/StillImage" />
        <dc:title></dc:title>
      </cc:Work>
    </rdf:RDF>
  </metadata>
  <g
     inkscape:label="Calque 1"
     inkscape:groupmode="layer"
     id="layer1"
     transform="translate(356.42062,-20.095494)">
    <path
       inkscape:connector-curvature="0"
       style="clip-rule:evenodd;fill:#b4b3b3;fill-rule:evenodd;stroke-width:0.23859808;fill-opacity:1"
       d="m -352.18728,20.863401 c 1.45609,0 2.76943,0.618812 3.70416,1.611227 l -0.61945,0.813442 c -0.75818,-0.864267 -1.8574,-1.41178 -3.08471,-1.41178 -1.22709,0 -2.32631,0.547513 -3.08473,1.41178 l -0.61944,-0.813442 c 0.93496,-0.992415 2.24831,-1.611227 3.70417,-1.611227 m 0,2.532101 c 0.8851,0 1.66644,0.443936 2.14785,1.123451 l -0.54689,0.718295 c -0.36183,-0.501747 -0.94322,-0.828858 -1.60096,-0.828858 -0.65774,0 -1.23914,0.327111 -1.60098,0.828858 l -0.54688,-0.718295 c 0.48141,-0.679515 1.26299,-1.123451 2.14786,-1.123451 m 0,2.5321 c 0.54901,0 0.9938,0.453572 0.9938,1.013128 0,0.559558 -0.44479,1.012889 -0.9938,1.012889 -0.54878,0 -0.99382,-0.453331 -0.99382,-1.012889 0,-0.559556 0.44504,-1.013128 0.99382,-1.013128"
       id="path254" />
  </g>
</svg>
