<?xml version="1.0" encoding="UTF-8" standalone="no"?>
<!-- Created with Inkscape (http://www.inkscape.org/) -->

<svg
   xmlns:dc="http://purl.org/dc/elements/1.1/"
   xmlns:cc="http://creativecommons.org/ns#"
   xmlns:rdf="http://www.w3.org/1999/02/22-rdf-syntax-ns#"
   xmlns:svg="http://www.w3.org/2000/svg"
   xmlns="http://www.w3.org/2000/svg"
   xmlns:sodipodi="http://sodipodi.sourceforge.net/DTD/sodipodi-0.dtd"
   xmlns:inkscape="http://www.inkscape.org/namespaces/inkscape"
   width="32"
   height="32"
   viewBox="0 0 8.4666664 8.4666665"
   version="1.1"
   id="svg3354"
   inkscape:version="0.92.2 (5c3e80d, 2017-08-06)"
   sodipodi:docname="detected.svg">
  <defs
     id="defs3348" />
  <sodipodi:namedview
     id="base"
     pagecolor="#ffffff"
     bordercolor="#666666"
     borderopacity="1.0"
     inkscape:pageopacity="0.0"
     inkscape:pageshadow="2"
     inkscape:zoom="11.2"
     inkscape:cx="8.2773116"
     inkscape:cy="7.3805378"
     inkscape:document-units="mm"
     inkscape:current-layer="layer1"
     showgrid="false"
     fit-margin-top="0"
     fit-margin-left="0"
     fit-margin-right="0"
     fit-margin-bottom="0"
     inkscape:window-width="1920"
     inkscape:window-height="1017"
     inkscape:window-x="-8"
     inkscape:window-y="-8"
     inkscape:window-maximized="1"
     units="px" />
  <metadata
     id="metadata3351">
    <rdf:RDF>
      <cc:Work
         rdf:about="">
        <dc:format>image/svg+xml</dc:format>
        <dc:type
           rdf:resource="http://purl.org/dc/dcmitype/StillImage" />
        <dc:title></dc:title>
      </cc:Work>
    </rdf:RDF>
  </metadata>
  <g
     inkscape:label="Calque 1"
     inkscape:groupmode="layer"
     id="layer1"
     transform="translate(356.42062,-20.095494)">
    <path
       inkscape:connector-curvature="0"
       style="clip-rule:evenodd;fill:#333333;fill-rule:evenodd;stroke-width:0.22259215"
       d="m -352.17119,21.153828 c 1.35841,0 2.58365,0.5773 3.45568,1.50314 l -0.5779,0.758874 c -0.70732,-0.806289 -1.7328,-1.317073 -2.87778,-1.317073 -1.14477,0 -2.17025,0.510784 -2.87779,1.317073 l -0.57789,-0.758874 c 0.87224,-0.92584 2.09749,-1.50314 3.45568,-1.50314 m 0,2.362239 c 0.82573,0 1.55465,0.414156 2.00377,1.048086 l -0.51021,0.67011 c -0.33755,-0.468088 -0.87994,-0.773256 -1.49356,-0.773256 -0.61361,0 -1.15601,0.305168 -1.49358,0.773256 l -0.51019,-0.67011 c 0.44911,-0.63393 1.17826,-1.048086 2.00377,-1.048086 m 0,2.362239 c 0.51218,0 0.92714,0.423145 0.92714,0.945164 0,0.522021 -0.41496,0.944941 -0.92714,0.944941 -0.51196,0 -0.92715,-0.42292 -0.92715,-0.944941 0,-0.522019 0.41519,-0.945164 0.92715,-0.945164"
       id="path254" />
  </g>
</svg>
