<?xml version="1.0" encoding="UTF-8" standalone="no"?>
<!-- Created with Inkscape (http://www.inkscape.org/) -->

<svg
   xmlns:dc="http://purl.org/dc/elements/1.1/"
   xmlns:cc="http://creativecommons.org/ns#"
   xmlns:rdf="http://www.w3.org/1999/02/22-rdf-syntax-ns#"
   xmlns:svg="http://www.w3.org/2000/svg"
   xmlns="http://www.w3.org/2000/svg"
   xmlns:sodipodi="http://sodipodi.sourceforge.net/DTD/sodipodi-0.dtd"
   xmlns:inkscape="http://www.inkscape.org/namespaces/inkscape"
   width="32"
   height="32"
   viewBox="0 0 8.4666667 8.4666666"
   version="1.1"
   id="svg2788"
   inkscape:version="0.92.2 (5c3e80d, 2017-08-06)"
   sodipodi:docname="history-penalized.svg">
  <defs
     id="defs2782" />
  <sodipodi:namedview
     id="base"
     pagecolor="#ffffff"
     bordercolor="#666666"
     borderopacity="1.0"
     inkscape:pageopacity="0.0"
     inkscape:pageshadow="2"
     inkscape:zoom="11.2"
     inkscape:cx="-2.6293039"
     inkscape:cy="16.824957"
     inkscape:document-units="mm"
     inkscape:current-layer="layer1"
     showgrid="false"
     fit-margin-top="0"
     fit-margin-left="0"
     fit-margin-right="0"
     fit-margin-bottom="0"
     inkscape:window-width="1920"
     inkscape:window-height="1017"
     inkscape:window-x="-8"
     inkscape:window-y="-8"
     inkscape:window-maximized="1"
     units="px" />
  <metadata
     id="metadata2785">
    <rdf:RDF>
      <cc:Work
         rdf:about="">
        <dc:format>image/svg+xml</dc:format>
        <dc:type
           rdf:resource="http://purl.org/dc/dcmitype/StillImage" />
        <dc:title></dc:title>
      </cc:Work>
    </rdf:RDF>
  </metadata>
  <g
     inkscape:label="Calque 1"
     inkscape:groupmode="layer"
     id="layer1"
     transform="translate(-6.319025,-88.680015)">
    <path
       inkscape:connector-curvature="0"
       style="fill:#b11411;stroke-width:0.11196367"
       d="m 8.0328515,94.268294 c 0.062924,0.104014 0.1749993,0.195041 0.2953602,0.195041 0.00694,0 0.014108,0.01422 0.021497,0.01388 0.1280863,-0.0081 0.2411695,-0.07938 0.2937924,-0.196944 l 0.7972935,-1.785145 0.6227424,0.594527 c 0.0655,0.06819 0.155181,0.05128 0.249231,0.05128 h 1.236863 c 0.190226,0 0.345072,-0.145105 0.345072,-0.335891 0,-0.190562 -0.154398,-0.335891 -0.345072,-0.335891 H 10.460224 L 9.5842204,91.602328 c -0.079606,-0.08285 -0.1953767,-0.09774 -0.3086842,-0.07725 -0.113195,0.01948 -0.2091479,0.106365 -0.2559488,0.211387 L 8.2818586,93.396882 7.8756544,92.68065 C 7.8129547,92.577082 7.701103,92.469149 7.5801823,92.469149 H 6.366272 v 0.671783 h 1.0194293 z"
       id="path258" />
  </g>
</svg>
