<?xml version="1.0" encoding="UTF-8" standalone="no"?>
<!-- Created with Inkscape (http://www.inkscape.org/) -->

<svg
   xmlns:dc="http://purl.org/dc/elements/1.1/"
   xmlns:cc="http://creativecommons.org/ns#"
   xmlns:rdf="http://www.w3.org/1999/02/22-rdf-syntax-ns#"
   xmlns:svg="http://www.w3.org/2000/svg"
   xmlns="http://www.w3.org/2000/svg"
   xmlns:sodipodi="http://sodipodi.sourceforge.net/DTD/sodipodi-0.dtd"
   xmlns:inkscape="http://www.inkscape.org/namespaces/inkscape"
   width="37.037689mm"
   height="7.8713102mm"
   viewBox="0 0 37.037689 7.8713102"
   version="1.1"
   id="svg4649"
   inkscape:version="0.92.2 (5c3e80d, 2017-08-06)"
   sodipodi:docname="logo-numaxes.svg">
  <defs
     id="defs4643" />
  <sodipodi:namedview
     id="base"
     pagecolor="#ffffff"
     bordercolor="#666666"
     borderopacity="1.0"
     inkscape:pageopacity="0.0"
     inkscape:pageshadow="2"
     inkscape:zoom="5.6"
     inkscape:cx="40.99502"
     inkscape:cy="11.552105"
     inkscape:document-units="mm"
     inkscape:current-layer="layer1"
     showgrid="false"
     fit-margin-top="0"
     fit-margin-left="0"
     fit-margin-right="0"
     fit-margin-bottom="0"
     inkscape:window-width="1920"
     inkscape:window-height="1017"
     inkscape:window-x="-8"
     inkscape:window-y="-8"
     inkscape:window-maximized="1" />
  <metadata
     id="metadata4646">
    <rdf:RDF>
      <cc:Work
         rdf:about="">
        <dc:format>image/svg+xml</dc:format>
        <dc:type
           rdf:resource="http://purl.org/dc/dcmitype/StillImage" />
        <dc:title></dc:title>
      </cc:Work>
    </rdf:RDF>
  </metadata>
  <g
     inkscape:label="Calque 1"
     inkscape:groupmode="layer"
     id="layer1"
     transform="translate(-16.706383,-164.92515)">
    <path
       style="fill:#ffffff;fill-opacity:1;fill-rule:evenodd;stroke:none;stroke-width:1.33333325"
       d="M 135.44141 0 C 131.18541 4.7719937 126.69577 9.258497 122.53711 14.146484 C 127.15044 9.875845 131.06928 4.7679904 135.61328 0.41601562 C 135.6507 0.15485027 135.88142 -0.0093354331 135.44141 0 z M 65.154297 8.4863281 C 64.521797 8.4863281 63.889532 8.5702813 63.519531 8.7382812 L 63.519531 14.355469 C 64.298201 14.800773 65.733681 14.452138 66.791016 14.5625 L 66.791016 8.7382812 C 66.42035 8.5702813 65.786797 8.4863281 65.154297 8.4863281 z M 2.9921875 12.445312 C 1.8157549 12.504788 0.5803388 12.957327 0.20117188 14.146484 C -0.20016104 18.238503 0.14396774 23.231283 0.029296875 27.669922 L 3.8144531 27.669922 L 3.8144531 16.019531 C 8.277119 19.082196 11.353996 30.454245 18.611328 27.044922 C 19.004664 22.666264 18.675184 17.413447 18.783203 12.689453 L 14.998047 12.689453 L 14.998047 24.132812 C 11.826048 21.983471 8.4583221 14.046757 4.8476562 12.689453 C 4.3831556 12.514952 3.6980471 12.409627 2.9921875 12.445312 z M 58.681641 12.544922 C 56.183141 12.546284 54.884062 15.698625 53.539062 18.306641 C 52.372394 20.569293 51.343359 22.621176 50.443359 23.923828 C 49.735359 22.503822 48.637577 20.493286 47.517578 18.306641 C 46.553576 16.422622 45.52538 13.522438 44.248047 12.898438 C 42.842713 12.21045 40.11443 12.530358 39.259766 14.146484 L 39.259766 27.669922 L 42.527344 27.669922 L 42.527344 16.435547 C 43.684677 17.740882 44.465618 19.895418 45.626953 22.052734 C 47.093618 24.782082 48.025648 28.464605 51.820312 27.669922 C 54.650982 24.643276 55.989296 19.812895 58.529297 16.435547 L 58.529297 27.669922 L 61.798828 27.669922 C 61.690809 23.084599 62.020289 17.970456 61.626953 13.730469 C 60.481287 12.893795 59.514474 12.544468 58.681641 12.544922 z M 116.64844 12.556641 C 111.12288 12.650072 105.20843 17.942797 108.77344 24.132812 C 109.32544 25.094135 110.15777 25.454593 111.00977 26.419922 C 110.13777 27.794612 108.6509 28.42331 107.74023 29.75 C 109.21357 28.963329 110.13339 27.5129 111.52539 26.628906 C 116.30139 29.614204 124.27611 27.605029 124.77344 21.011719 L 121.50586 21.011719 C 120.87386 23.714383 119.30375 25.285223 116.34375 25.171875 L 116.42969 24.183594 L 115.82812 23.507812 C 117.99879 20.585142 120.89614 18.541215 122.88281 15.394531 C 122.62683 15.286437 122.44802 15.086459 122.19336 14.978516 L 122.13477 14.423828 L 121.67773 14.355469 C 120.28773 13.071799 118.49029 12.525497 116.64844 12.556641 z M 91.677734 12.677734 C 90.932426 12.666044 90.0995 12.853703 89.15625 13.314453 C 91.348251 15.655795 93.663314 17.852647 95.695312 20.388672 C 93.679313 22.807305 90.621457 25.065941 89.328125 27.669922 L 93.802734 27.669922 C 95.470734 26.07927 96.726428 23.990452 98.621094 22.675781 C 100.63576 23.38244 101.34017 26.973922 103.4375 27.669922 C 104.6295 28.064618 105.93357 27.388725 107.74023 27.669922 C 106.5189 24.979276 103.23754 22.993017 101.54688 20.179688 C 103.4242 17.66101 106.50023 15.495767 107.74023 12.898438 L 103.26562 12.898438 C 101.5883 14.475786 100.4411 16.694268 98.621094 18.099609 C 96.520511 16.525514 94.907406 12.728394 91.677734 12.677734 z M 20.847656 12.689453 C 20.447654 15.949447 20.792405 20.110107 20.677734 23.716797 C 23.173734 29.495468 35.024395 29.424791 37.539062 23.716797 L 37.539062 12.689453 L 33.925781 12.689453 C 33.103114 17.165434 35.127958 19.99812 33.751953 23.716797 C 32.509286 27.07812 25.379605 26.358332 24.460938 23.507812 C 23.496939 20.510458 24.827028 16.446757 24.291016 12.689453 L 20.847656 12.689453 z M 132.1543 12.822266 C 128.13635 12.903604 124.59789 13.716468 125.46289 17.890625 C 126.38156 22.323973 135.0054 20.234116 136.30273 24.132812 C 133.89341 25.866142 128.96822 24.556844 125.46289 24.964844 L 125.46289 27.876953 C 130.89222 27.527725 140.91468 29.694076 139.91602 22.884766 C 139.59468 20.69143 137.04711 19.746684 134.92578 19.138672 C 132.76445 18.520001 129.78951 18.770274 129.07617 16.435547 C 131.37217 15.051559 135.74148 16.174515 138.88281 15.810547 C 139.22947 15.18787 138.97997 13.847779 139.05469 12.898438 C 137.14769 12.986878 134.56506 12.773462 132.1543 12.822266 z M 79.458984 12.998047 C 76.807174 12.934804 74.12288 13.67259 72.466797 15.1875 C 65.624132 21.4515 75.576602 32.298235 82.447266 26.628906 L 82.447266 23.300781 C 79.788602 26.371458 74.055875 25.592709 73.671875 21.220703 C 73.089208 14.598026 82.874633 14.406258 84.167969 18.515625 C 84.965302 21.051612 83.926515 24.397947 84.339844 27.669922 L 87.609375 27.669922 C 87.180043 23.224593 88.349639 20.168932 87.265625 17.267578 C 86.223874 14.48509 82.868455 13.079359 79.458984 12.998047 z M 116.16016 15.416016 C 117.01924 15.402411 117.90795 15.646559 118.75195 16.226562 C 117.28128 18.475873 114.46584 20.190073 113.58984 22.46875 L 112.98828 22.988281 L 112.55859 23.716797 C 109.25875 20.371457 112.43747 15.474971 116.16016 15.416016 z "
       transform="matrix(0.26458333,0,0,0.26458333,16.706383,164.92515)"
       id="path3149" />
  </g>
</svg>
