<?xml version="1.0" encoding="UTF-8" standalone="no"?>
<!-- Created with Inkscape (http://www.inkscape.org/) -->

<svg
   xmlns:dc="http://purl.org/dc/elements/1.1/"
   xmlns:cc="http://creativecommons.org/ns#"
   xmlns:rdf="http://www.w3.org/1999/02/22-rdf-syntax-ns#"
   xmlns:svg="http://www.w3.org/2000/svg"
   xmlns="http://www.w3.org/2000/svg"
   xmlns:sodipodi="http://sodipodi.sourceforge.net/DTD/sodipodi-0.dtd"
   xmlns:inkscape="http://www.inkscape.org/namespaces/inkscape"
   width="132.29167mm"
   height="132.29167mm"
   viewBox="0 0 132.29167 132.29167"
   version="1.1"
   id="svg2924"
   inkscape:version="0.92.2 (5c3e80d, 2017-08-06)"
   sodipodi:docname="logo-cordova.svg"
   inkscape:export-filename="D:\Cordova\CaniCalm\www\img\logo-cordova.png"
   inkscape:export-xdpi="100.032"
   inkscape:export-ydpi="100.032">
  <defs
     id="defs2918">
    <linearGradient
       id="SVGID_2_"
       gradientUnits="userSpaceOnUse"
       x1="241.4146"
       y1="410.85349"
       x2="241.41451"
       y2="0.070299998"
       gradientTransform="matrix(1,-1e-4,-1e-4,1.1063,-0.1778,-0.2502)">
      <stop
         offset="0.0061"
         style="stop-color:#D3830E"
         id="stop39" />
      <stop
         offset="0.0625"
         style="stop-color:#DE8E16"
         id="stop41" />
      <stop
         offset="0.1705"
         style="stop-color:#EC9D20"
         id="stop43" />
      <stop
         offset="0.2978"
         style="stop-color:#F5A627"
         id="stop45" />
      <stop
         offset="0.4908"
         style="stop-color:#F8A929"
         id="stop47" />
      <stop
         offset="0.7694"
         style="stop-color:#F6A727"
         id="stop49" />
      <stop
         offset="0.8698"
         style="stop-color:#EFA022"
         id="stop51" />
      <stop
         offset="0.941"
         style="stop-color:#E4941A"
         id="stop53" />
      <stop
         offset="0.9985"
         style="stop-color:#D4840E"
         id="stop55" />
      <stop
         offset="1"
         style="stop-color:#D3830E"
         id="stop57" />
    </linearGradient>
    <clipPath
       id="clipPath4623"
       clipPathUnits="userSpaceOnUse">
      <rect
         y="54.719143"
         x="44.928986"
         height="157.55827"
         width="100.66785"
         id="rect4625"
         style="opacity:0.90399996;fill:#004eff;fill-opacity:0.14901961;stroke:#ffffff;stroke-width:1.39264631;stroke-opacity:1" />
    </clipPath>
    <clipPath
       id="clipPath4627"
       clipPathUnits="userSpaceOnUse">
      <rect
         y="54.719143"
         x="44.928986"
         height="157.55827"
         width="100.66785"
         id="rect4629"
         style="opacity:0.90399996;fill:#004eff;fill-opacity:0.14901961;stroke:#ffffff;stroke-width:1.39264631;stroke-opacity:1" />
    </clipPath>
    <clipPath
       id="clipPath4631"
       clipPathUnits="userSpaceOnUse">
      <rect
         y="54.719143"
         x="44.928986"
         height="157.55827"
         width="100.66785"
         id="rect4633"
         style="opacity:0.90399996;fill:#004eff;fill-opacity:0.14901961;stroke:#ffffff;stroke-width:1.39264631;stroke-opacity:1" />
    </clipPath>
    <clipPath
       id="clipPath4635"
       clipPathUnits="userSpaceOnUse">
      <rect
         y="54.719143"
         x="44.928986"
         height="157.55827"
         width="100.66785"
         id="rect4637"
         style="opacity:0.90399996;fill:#004eff;fill-opacity:0.14901961;stroke:#ffffff;stroke-width:1.39264631;stroke-opacity:1" />
    </clipPath>
    <clipPath
       id="clipPath4639"
       clipPathUnits="userSpaceOnUse">
      <rect
         y="54.719143"
         x="44.928986"
         height="157.55827"
         width="100.66785"
         id="rect4641"
         style="opacity:0.90399996;fill:#004eff;fill-opacity:0.14901961;stroke:#ffffff;stroke-width:1.39264631;stroke-opacity:1" />
    </clipPath>
  </defs>
  <sodipodi:namedview
     id="base"
     pagecolor="#ffffff"
     bordercolor="#666666"
     borderopacity="1.0"
     inkscape:pageopacity="0.0"
     inkscape:pageshadow="2"
     inkscape:zoom="1.4"
     inkscape:cx="301.5414"
     inkscape:cy="251.71582"
     inkscape:document-units="mm"
     inkscape:current-layer="layer1"
     showgrid="false"
     fit-margin-top="0"
     fit-margin-left="0"
     fit-margin-right="0"
     fit-margin-bottom="0"
     inkscape:window-width="1920"
     inkscape:window-height="1017"
     inkscape:window-x="1912"
     inkscape:window-y="-8"
     inkscape:window-maximized="1" />
  <metadata
     id="metadata2921">
    <rdf:RDF>
      <cc:Work
         rdf:about="">
        <dc:format>image/svg+xml</dc:format>
        <dc:type
           rdf:resource="http://purl.org/dc/dcmitype/StillImage" />
        <dc:title></dc:title>
      </cc:Work>
    </rdf:RDF>
  </metadata>
  <g
     inkscape:label="Calque 1"
     inkscape:groupmode="layer"
     id="layer1"
     transform="translate(202.83772,-43.399711)">
    <polygon
       transform="matrix(0.27455917,0,0,0.2911028,-202.92009,43.449781)"
       style="clip-rule:evenodd;fill:url(#SVGID_2_);fill-rule:evenodd"
       points="0.616,-0.172 482.133,0.172 481.814,452.806 0.3,454.278 "
       id="polygon60" />
    <g
       transform="matrix(0.94963709,0,0,0.94963709,-225.21097,-16.933957)"
       id="layer1-3"
       inkscape:label="Calque 1">
      <path
         clip-path="url(#clipPath4639)"
         d="m 124.02596,124.2513 v 5.50898 c -0.98531,11.57499 -9.83333,21.14973 -18.65913,26.65518 -1.97485,1.22979 -7.691963,5.05249 -10.126481,4.97523 -5.308955,-0.1711 -7.81544,-9.80652 -6.400097,-16.34808 -2.17946,2.6162 -5.525558,5.1876 -6.929612,9.4167 -1.091848,3.28471 -1.102431,7.5117 -3.91019,8.35166 2.302934,-2.53717 1.495777,-7.15468 2.844449,-10.30569 0.856191,-1.99567 2.420053,-3.48545 3.7338,-4.79954 0.997301,-0.99872 3.832576,-2.87373 4.439001,-4.08517 0.439209,-0.87595 0.569032,-2.4444 0.888649,-3.73098 0.927803,-3.73274 2.428168,-7.3032 3.377845,-10.66271 4.92619,-17.48155 -3.418769,-32.750828 -9.063212,-44.068645 8.20067,7.794272 15.030095,16.791165 16.347018,30.741405 0.70767,7.49582 -1.059393,13.73223 -3.553533,19.54671 -2.387952,5.56825 -5.328002,11.78314 -5.328002,18.30317 0,3.03178 0.959909,5.81131 3.19546,7.28486 9.259355,-8.84943 22.086715,-17.23707 23.100245,-33.94004 0.5849,-9.62907 -2.59821,-15.89087 -6.22053,-22.03344 -7.25946,-12.330643 -17.691456,-22.212301 -28.251506,-30.743525 -2.260952,-1.826331 -4.907492,-3.110089 -6.395509,-5.151967 2.849386,0.978253 5.466292,2.747434 7.99465,4.443589 2.523774,1.688394 4.913136,3.654425 7.285215,5.506155 14.30866,11.174941 28.02996,23.564148 31.63147,45.136148"
         style="fill:#341a13;fill-opacity:1;fill-rule:evenodd;stroke:none;stroke-width:0.35277775"
         id="path3019"
         inkscape:connector-curvature="0" />
      <path
         clip-path="url(#clipPath4635)"
         d="m 65.38681,120.1642 c -0.219426,0.50235 -0.219426,1.09643 0,1.59879 2.409119,1.23225 2.409119,-2.83069 0,-1.59879 m 11.191875,-1.95369 c 0.606425,8.23031 -7.86765,12.591 -14.393333,8.35025 -0.408517,0.47978 -0.06138,1.71415 -0.177093,2.48744 -3.000375,-10.05593 7.313787,-16.31456 14.570426,-10.83769"
         style="fill:#341a13;fill-opacity:1;fill-rule:evenodd;stroke:none;stroke-width:0.35277775"
         id="path3023"
         inkscape:connector-curvature="0" />
      <path
         clip-path="url(#clipPath4631)"
         d="m 46.016067,196.75126 h -3.199342 c -4.031546,-0.70555 -6.830484,-2.64724 -9.417404,-4.79777 -4.625269,2.41441 -11.029949,2.31422 -14.570427,-0.1778 -10.4619773,-7.36459 -6.882341,-31.63218 -2.132541,-42.291 -0.854781,11.45257 -3.619853,28.34111 1.776941,36.96052 5.0038,7.99183 17.73308,2.80459 24.876476,-0.3556 -2.693458,2.33857 -6.021915,4.04707 -9.239601,5.86388 5.610931,3.55988 15.113706,3.88478 20.436064,-0.1778 -3.337983,-1.45909 -6.917621,-3.62585 -9.064273,-5.68608 5.936192,2.25179 16.494125,7.88035 22.7457,2.84269 8.2677,-6.66115 4.276725,-27.28983 4.086929,-39.44761 3.63573,10.26971 7.654221,30.59853 0.178506,39.98101 -3.188758,4.0012 -10.924116,5.7718 -17.238485,2.66559 -2.212975,1.69509 -5.316008,4.04107 -9.238543,4.61997"
         style="fill:#341a13;fill-opacity:1;fill-rule:evenodd;stroke:none;stroke-width:0.35277775"
         id="path3027"
         inkscape:connector-curvature="0" />
      <path
         clip-path="url(#clipPath4627)"
         d="m 49.570196,173.47294 c -2.367492,1.94028 -3.55106,5.74463 0.70979,4.97593 2.802466,-0.50518 6.014154,-2.90653 6.040964,-6.21947 -2.063044,-1.46614 -4.894789,-0.27905 -6.750754,1.24354 m -15.81538,-1.95509 c -2.90442,0.65193 -0.492125,3.84422 0.889352,4.97593 1.83127,1.50283 4.639028,2.69487 6.752168,1.4224 0.874183,-3.0219 -4.765323,-7.04251 -7.64152,-6.39833 m 7.286978,-8.35131 c 8.987012,-0.73695 17.915464,0.50518 17.591262,8.88471 -0.329848,8.41833 -12.763145,13.71882 -20.790957,9.773 -3.456164,-1.69827 -7.259461,-5.40914 -7.641519,-9.23925 -0.679803,-6.86611 4.719461,-8.91611 10.841214,-9.41846"
         style="fill:#341a13;fill-opacity:1;fill-rule:evenodd;stroke:none;stroke-width:0.35277775"
         id="path3031"
         inkscape:connector-curvature="0" />
      <path
         clip-path="url(#clipPath4623)"
         d="m 79.246601,116.43248 c -2.821869,-1.29223 -6.819546,-3.68265 -11.550296,-3.19758 -3.204987,0.32667 -5.610579,2.01542 -7.643989,3.55283 2.629958,-6.39022 15.280568,-6.09706 19.194285,-0.35525"
         style="fill:#341a13;fill-opacity:1;fill-rule:evenodd;stroke:none;stroke-width:0.35277775"
         id="path3035"
         inkscape:connector-curvature="0" />
    </g>
  </g>
</svg>
