<?xml version="1.0" encoding="UTF-8" standalone="no"?>
<!-- Created with Inkscape (http://www.inkscape.org/) -->

<svg
   xmlns:dc="http://purl.org/dc/elements/1.1/"
   xmlns:cc="http://creativecommons.org/ns#"
   xmlns:rdf="http://www.w3.org/1999/02/22-rdf-syntax-ns#"
   xmlns:svg="http://www.w3.org/2000/svg"
   xmlns="http://www.w3.org/2000/svg"
   xmlns:sodipodi="http://sodipodi.sourceforge.net/DTD/sodipodi-0.dtd"
   xmlns:inkscape="http://www.inkscape.org/namespaces/inkscape"
   width="10.583333mm"
   height="7.7444725mm"
   viewBox="0 0 10.583333 7.7444725"
   version="1.1"
   id="svg11210"
   inkscape:version="0.92.2 (5c3e80d, 2017-08-06)"
   sodipodi:docname="low-barkings.svg">
  <defs
     id="defs11204" />
  <sodipodi:namedview
     id="base"
     pagecolor="#ffffff"
     bordercolor="#666666"
     borderopacity="1.0"
     inkscape:pageopacity="0.0"
     inkscape:pageshadow="2"
     inkscape:zoom="13.033324"
     inkscape:cx="43.175984"
     inkscape:cy="-1.5593654"
     inkscape:document-units="mm"
     inkscape:current-layer="layer1"
     showgrid="false"
     fit-margin-top="0"
     fit-margin-left="0"
     fit-margin-right="0"
     fit-margin-bottom="0"
     inkscape:window-width="1920"
     inkscape:window-height="1017"
     inkscape:window-x="-8"
     inkscape:window-y="-8"
     inkscape:window-maximized="1" />
  <metadata
     id="metadata11207">
    <rdf:RDF>
      <cc:Work
         rdf:about="">
        <dc:format>image/svg+xml</dc:format>
        <dc:type
           rdf:resource="http://purl.org/dc/dcmitype/StillImage" />
        <dc:title></dc:title>
      </cc:Work>
    </rdf:RDF>
  </metadata>
  <g
     inkscape:label="Calque 1"
     inkscape:groupmode="layer"
     id="layer1"
     transform="translate(64.108415,-228.76386)">
    <path
       inkscape:connector-curvature="0"
       style="clip-rule:evenodd;fill:#323232;fill-opacity:1;fill-rule:evenodd;stroke-width:0.27217177"
       d="m -57.562736,236.50833 c -1.715498,0 -3.430453,0 -5.145679,0 0.249309,-1.46211 0.336948,-3.02328 1.098758,-4.10517 0.27081,-0.38512 0.686417,-0.75746 1.127335,-0.86713 0.477933,-0.11922 0.996421,0.11975 1.560905,0 0.176367,-0.0376 0.507056,-0.24442 0.693765,-0.37587 0.241689,-0.17012 0.680702,-0.78169 1.011935,-0.75147 0.30075,0.0273 0.666821,0.73486 0.693766,0.95396 0.04192,0.33967 -0.145339,0.76698 -0.289046,1.04051 -0.22808,0.43466 -0.663555,0.66792 -0.694038,1.15646 0.361444,-0.009 0.801002,0.18127 1.185307,0.17365 0.283876,-0.006 0.465415,-0.25394 0.722617,-0.17365 0.120572,0.58136 -0.0215,0.92402 -0.404719,1.15646 -0.476301,0.28932 -1.362765,0.1301 -1.676579,0.46269 -0.320074,0.33858 -0.03784,0.94471 0.115673,1.32956 z m -2.081297,-4.56759 c -0.123839,0.16385 -0.198141,0.5038 -0.144523,0.75147 0.183716,-0.21584 0.5702,-0.36771 0.491541,-0.75147 -0.06641,-0.0452 -0.280608,-0.0452 -0.347018,0 z"
       id="path672" />
    <path
       inkscape:connector-curvature="0"
       style="fill:#323232;fill-opacity:1;stroke-width:0.27217177"
       d="m -55.758781,231.27202 c -0.04682,0.12111 0.01442,0.25747 0.135814,0.30428 0.326062,0.1252 0.490181,0.49209 0.365526,0.81843 -0.04627,0.12193 0.01442,0.25747 0.136086,0.30401 0.06069,0.0232 0.125199,0.0193 0.179905,-0.005 0.05525,-0.0245 0.101243,-0.0703 0.124383,-0.13092 0.217738,-0.56829 -0.06831,-1.20871 -0.637154,-1.42672 -0.12166,-0.0468 -0.258291,0.0142 -0.30456,0.13609 z m 0,0"
       id="path681" />
  </g>
</svg>
