<?xml version="1.0" encoding="UTF-8" standalone="no"?>
<!-- Created with Inkscape (http://www.inkscape.org/) -->

<svg
   xmlns:dc="http://purl.org/dc/elements/1.1/"
   xmlns:cc="http://creativecommons.org/ns#"
   xmlns:rdf="http://www.w3.org/1999/02/22-rdf-syntax-ns#"
   xmlns:svg="http://www.w3.org/2000/svg"
   xmlns="http://www.w3.org/2000/svg"
   xmlns:sodipodi="http://sodipodi.sourceforge.net/DTD/sodipodi-0.dtd"
   xmlns:inkscape="http://www.inkscape.org/namespaces/inkscape"
   width="10.81296mm"
   height="8.0409498mm"
   viewBox="0 0 10.81296 8.0409498"
   version="1.1"
   id="svg3045"
   inkscape:version="0.92.2 (5c3e80d, 2017-08-06)"
   sodipodi:docname="out.svg">
  <defs
     id="defs3039" />
  <sodipodi:namedview
     id="base"
     pagecolor="#ffffff"
     bordercolor="#666666"
     borderopacity="1.0"
     inkscape:pageopacity="0.0"
     inkscape:pageshadow="2"
     inkscape:zoom="0.35"
     inkscape:cx="-500.99621"
     inkscape:cy="15.195502"
     inkscape:document-units="mm"
     inkscape:current-layer="layer1"
     showgrid="false"
     fit-margin-top="0"
     fit-margin-left="0"
     fit-margin-right="0"
     fit-margin-bottom="0"
     inkscape:window-width="1920"
     inkscape:window-height="1017"
     inkscape:window-x="1912"
     inkscape:window-y="-8"
     inkscape:window-maximized="1" />
  <metadata
     id="metadata3042">
    <rdf:RDF>
      <cc:Work
         rdf:about="">
        <dc:format>image/svg+xml</dc:format>
        <dc:type
           rdf:resource="http://purl.org/dc/dcmitype/StillImage" />
        <dc:title></dc:title>
      </cc:Work>
    </rdf:RDF>
  </metadata>
  <g
     inkscape:label="Calque 1"
     inkscape:groupmode="layer"
     id="layer1"
     transform="translate(-100.42727,-144.81286)">
    <path
       inkscape:connector-curvature="0"
       style="fill:#333333;stroke-width:0.26458332"
       id="XMLID_4_"
       d="m 102.10443,149.32533 h 5.69463 c 0.27146,0 0.49159,-0.22014 0.49159,-0.4916 0,-0.27146 -0.22013,-0.49133 -0.49159,-0.49133 h -5.69463 l 0.63553,-0.63553 c 0.19209,-0.19209 0.19209,-0.50297 0,-0.69506 -0.19183,-0.19209 -0.50298,-0.19209 -0.69506,0 l -1.47453,1.47452 c -0.0114,0.0114 -0.022,0.023 -0.0323,0.0357 -0.002,0.003 -0.005,0.006 -0.007,0.009 -0.007,0.01 -0.0148,0.0191 -0.0217,0.0291 -0.002,0.003 -0.003,0.006 -0.006,0.009 -0.007,0.0103 -0.0132,0.0212 -0.0193,0.032 -0.001,0.002 -0.002,0.005 -0.003,0.007 -0.006,0.0122 -0.0122,0.0243 -0.0172,0.037 -7.9e-4,0.002 -0.001,0.003 -0.002,0.005 -0.005,0.0132 -0.0103,0.0267 -0.0143,0.0402 -7.9e-4,0.002 -7.9e-4,0.004 -0.001,0.006 -0.004,0.0138 -0.007,0.0273 -0.0103,0.0413 -7.9e-4,0.004 -10e-4,0.008 -0.002,0.0127 -0.002,0.0114 -0.004,0.0233 -0.005,0.0352 -0.002,0.0161 -0.002,0.0323 -0.002,0.0489 0,0.0167 7.9e-4,0.0331 0.002,0.0495 10e-4,0.0119 0.003,0.0236 0.005,0.0352 8e-4,0.004 0.001,0.008 0.002,0.0124 0.003,0.014 0.006,0.0278 0.0103,0.0413 5.3e-4,0.002 8e-4,0.004 0.001,0.005 0.004,0.0138 0.009,0.0275 0.0145,0.0408 5.3e-4,0.001 0.001,0.003 0.002,0.004 0.005,0.0127 0.0111,0.0251 0.0175,0.0373 10e-4,0.002 0.002,0.004 0.003,0.006 0.006,0.0111 0.0127,0.0217 0.0196,0.0323 0.002,0.003 0.003,0.006 0.005,0.009 0.007,0.0101 0.0143,0.0196 0.0217,0.0294 0.002,0.003 0.005,0.006 0.007,0.009 0.0103,0.0127 0.0212,0.0243 0.0325,0.036 l 1.47453,1.47426 c 0.096,0.096 0.22172,0.1442 0.3474,0.1442 0.12594,0 0.25188,-0.0482 0.34766,-0.1442 0.19209,-0.19209 0.19209,-0.50297 0,-0.69506 z" />
    <path
       inkscape:connector-curvature="0"
       style="fill:#333333;stroke-width:0.26458332"
       id="XMLID_5_"
       d="m 107.21909,144.81286 c -1.3417,0 -2.59001,0.66569 -3.33904,1.78038 -0.15161,0.22542 -0.0915,0.53075 0.13361,0.68209 0.22543,0.15108 0.53076,0.0916 0.6821,-0.13387 0.56621,-0.8427 1.50971,-1.34594 2.52333,-1.34594 1.67508,2.6e-4 3.03768,1.36287 3.03768,3.03768 0,1.67508 -1.3626,3.03768 -3.03768,3.03768 -1.01071,0 -1.95236,-0.50085 -2.5191,-1.33958 -0.15187,-0.2249 -0.45746,-0.2839 -0.68236,-0.13203 -0.2249,0.15187 -0.28416,0.45746 -0.13203,0.68236 0.74957,1.10966 1.99576,1.77218 3.33375,1.77218 2.21721,0 4.02088,-1.80367 4.02088,-4.02061 0,-2.21694 -1.80393,-4.02034 -4.02114,-4.02034 z" />
  </g>
</svg>
