<?xml version="1.0" encoding="UTF-8" standalone="no"?>
<!-- Created with Inkscape (http://www.inkscape.org/) -->

<svg
   xmlns:dc="http://purl.org/dc/elements/1.1/"
   xmlns:cc="http://creativecommons.org/ns#"
   xmlns:rdf="http://www.w3.org/1999/02/22-rdf-syntax-ns#"
   xmlns:svg="http://www.w3.org/2000/svg"
   xmlns="http://www.w3.org/2000/svg"
   xmlns:sodipodi="http://sodipodi.sourceforge.net/DTD/sodipodi-0.dtd"
   xmlns:inkscape="http://www.inkscape.org/namespaces/inkscape"
   width="6.1121407mm"
   height="6.1126699mm"
   viewBox="0 0 6.1121407 6.1126699"
   version="1.1"
   id="svg1298"
   inkscape:version="0.92.2 (5c3e80d, 2017-08-06)"
   sodipodi:docname="param-o.svg">
  <defs
     id="defs1292" />
  <sodipodi:namedview
     id="base"
     pagecolor="#ffffff"
     bordercolor="#666666"
     borderopacity="1.0"
     inkscape:pageopacity="0.0"
     inkscape:pageshadow="2"
     inkscape:zoom="15.839192"
     inkscape:cx="27.738151"
     inkscape:cy="11.234072"
     inkscape:document-units="mm"
     inkscape:current-layer="layer1"
     showgrid="false"
     fit-margin-top="0"
     fit-margin-left="0"
     fit-margin-right="0"
     fit-margin-bottom="0"
     inkscape:window-width="1920"
     inkscape:window-height="1017"
     inkscape:window-x="-8"
     inkscape:window-y="-8"
     inkscape:window-maximized="1" />
  <metadata
     id="metadata1295">
    <rdf:RDF>
      <cc:Work
         rdf:about="">
        <dc:format>image/svg+xml</dc:format>
        <dc:type
           rdf:resource="http://purl.org/dc/dcmitype/StillImage" />
        <dc:title></dc:title>
      </cc:Work>
    </rdf:RDF>
  </metadata>
  <g
     inkscape:label="Calque 1"
     inkscape:groupmode="layer"
     id="layer1"
     transform="translate(-124.69993,-110.24691)">
    <path
       inkscape:connector-curvature="0"
       style="clip-rule:evenodd;fill:#f8a929;fill-rule:evenodd;stroke-width:0.26458332;fill-opacity:1"
       d="m 130.00293,113.91674 c -0.0519,0.1868 -0.127,0.36354 -0.2212,0.52811 0.014,0.0172 0.50933,0.63897 0.20506,0.94298 l -0.15135,0.15187 c -0.2278,0.22781 -0.79877,-0.12885 -0.93477,-0.21961 -0.17383,0.0976 -0.36063,0.17384 -0.55853,0.22437 l 0.04,0.001 c 0,0 -0.10742,0.8136 -0.54372,0.81412 h -0.14975 c -0.33232,2.7e-4 -0.51832,-0.69664 -0.55007,-0.82814 -0.19553,-0.055 -0.38074,-0.13467 -0.55166,-0.23574 l 0.0299,0.032 c 0,0 -0.64426,0.50694 -0.9525,0.1987 l -0.13679,-0.1135 c -0.23442,-0.23416 0.14314,-0.85514 0.21854,-0.97367 -0.0915,-0.1606 -0.16483,-0.33311 -0.21563,-0.51488 -0.12779,-0.0309 -0.83026,-0.2159 -0.83053,-0.54954 v -0.14949 c -2.6e-4,-0.38497 0.66887,-0.51461 0.82577,-0.54001 0.0497,-0.18336 0.12276,-0.35719 0.21352,-0.51938 -0.0717,-0.10927 -0.46514,-0.73237 -0.2286,-0.9689 l 0.14366,-0.12118 c 0.2712,-0.27146 0.82762,0.11245 0.95727,0.20875 0.1643,-0.0945 0.34052,-0.16986 0.52705,-0.22198 0.041,-0.16351 0.22489,-0.81545 0.54557,-0.81571 h 0.14975 c 0.37386,-2.7e-4 0.50668,0.62997 0.53711,0.81015 0.18891,0.0511 0.36856,0.12594 0.53498,0.22014 0.14103,-0.0918 0.72126,-0.44689 0.94801,-0.22014 l 0.13679,0.14394 c 0.2659,0.26564 -0.1024,0.80406 -0.20929,0.94826 0.0937,0.16457 0.16933,0.34184 0.22066,0.52838 0.0476,0.007 0.80963,0.12091 0.80989,0.54319 v 0.14948 c 8e-4,0.31856 -0.6395,0.50298 -0.80909,0.5461 m -2.24685,-2.3315 c -0.94932,5.3e-4 -1.71873,0.77099 -1.7182,1.72032 5.3e-4,0.94959 0.771,1.71873 1.72032,1.7182 0.94933,-5.3e-4 1.71873,-0.77099 1.71821,-1.72032 -5.3e-4,-0.94985 -0.771,-1.719 -1.72033,-1.7182 m 0.002,2.86517 c -0.63314,2.6e-4 -1.14643,-0.5125 -1.14696,-1.14538 -5.3e-4,-0.63289 0.5125,-1.14644 1.14538,-1.14671 0.63288,-2.6e-4 1.14644,0.5125 1.14697,1.14539 5.3e-4,0.63288 -0.51224,1.14643 -1.14538,1.1467 m -10e-4,-1.719 c -0.31618,2.7e-4 -0.57309,0.25665 -0.57282,0.57335 2.6e-4,0.31671 0.25743,0.57309 0.57361,0.57283 0.31618,-2.7e-4 0.57282,-0.25691 0.57256,-0.57362 -2.6e-4,-0.31671 -0.25691,-0.57282 -0.57335,-0.57256"
       id="path91" />
  </g>
</svg>
