<?xml version="1.0" encoding="UTF-8" standalone="no"?>
<!-- Created with Inkscape (http://www.inkscape.org/) -->

<svg
   xmlns:dc="http://purl.org/dc/elements/1.1/"
   xmlns:cc="http://creativecommons.org/ns#"
   xmlns:rdf="http://www.w3.org/1999/02/22-rdf-syntax-ns#"
   xmlns:svg="http://www.w3.org/2000/svg"
   xmlns="http://www.w3.org/2000/svg"
   xmlns:sodipodi="http://sodipodi.sourceforge.net/DTD/sodipodi-0.dtd"
   xmlns:inkscape="http://www.inkscape.org/namespaces/inkscape"
   width="32"
   height="32"
   viewBox="0 0 8.4666667 8.4666666"
   version="1.1"
   id="svg2788"
   inkscape:version="0.92.2 (5c3e80d, 2017-08-06)"
   sodipodi:docname="penalized.svg">
  <defs
     id="defs2782" />
  <sodipodi:namedview
     id="base"
     pagecolor="#ffffff"
     bordercolor="#666666"
     borderopacity="1.0"
     inkscape:pageopacity="0.0"
     inkscape:pageshadow="2"
     inkscape:zoom="15.839192"
     inkscape:cx="3.5017934"
     inkscape:cy="9.5434349"
     inkscape:document-units="mm"
     inkscape:current-layer="layer1"
     showgrid="false"
     fit-margin-top="0"
     fit-margin-left="0"
     fit-margin-right="0"
     fit-margin-bottom="0"
     inkscape:window-width="1920"
     inkscape:window-height="1017"
     inkscape:window-x="-8"
     inkscape:window-y="-8"
     inkscape:window-maximized="1"
     units="px" />
  <metadata
     id="metadata2785">
    <rdf:RDF>
      <cc:Work
         rdf:about="">
        <dc:format>image/svg+xml</dc:format>
        <dc:type
           rdf:resource="http://purl.org/dc/dcmitype/StillImage" />
        <dc:title></dc:title>
      </cc:Work>
    </rdf:RDF>
  </metadata>
  <g
     inkscape:label="Calque 1"
     inkscape:groupmode="layer"
     id="layer1"
     transform="translate(-6.319025,-88.680015)">
    <path
       inkscape:connector-curvature="0"
       style="fill:#b11411;stroke-width:0.17146984"
       d="m 8.8713538,94.842338 c 0.096366,0.159296 0.2680075,0.2987 0.4523376,0.2987 0.010628,0 0.021607,0.02178 0.032922,0.02126 0.1961615,-0.01234 0.3693459,-0.121569 0.4499366,-0.301612 l 1.221037,-2.733915 0.953716,0.910505 c 0.100309,0.104425 0.237656,0.07853 0.381691,0.07853 h 1.894227 c 0.291328,0 0.528471,-0.222225 0.528471,-0.514409 0,-0.291842 -0.236457,-0.51441 -0.528471,-0.51441 H 12.58882 l -1.34158,-1.327519 c -0.121915,-0.126888 -0.299215,-0.149693 -0.472743,-0.118314 -0.173355,0.02984 -0.320305,0.162896 -0.391979,0.323735 L 9.2527025,93.50779 8.63061,92.410897 C 8.5345869,92.252286 8.3632886,92.086989 8.1781011,92.086989 H 6.319025 v 1.028819 h 1.561233 z"
       id="path258" />
  </g>
</svg>
