<?xml version="1.0" encoding="UTF-8" standalone="no"?>
<!-- Created with Inkscape (http://www.inkscape.org/) -->

<svg
   xmlns:dc="http://purl.org/dc/elements/1.1/"
   xmlns:cc="http://creativecommons.org/ns#"
   xmlns:rdf="http://www.w3.org/1999/02/22-rdf-syntax-ns#"
   xmlns:svg="http://www.w3.org/2000/svg"
   xmlns="http://www.w3.org/2000/svg"
   xmlns:sodipodi="http://sodipodi.sourceforge.net/DTD/sodipodi-0.dtd"
   xmlns:inkscape="http://www.inkscape.org/namespaces/inkscape"
   width="45"
   height="27.000011"
   viewBox="0 0 11.906249 7.1437531"
   version="1.1"
   id="svg1043"
   inkscape:version="0.92.2 (5c3e80d, 2017-08-06)"
   sodipodi:docname="select-next.svg">
  <defs
     id="defs1037" />
  <sodipodi:namedview
     id="base"
     pagecolor="#ffffff"
     bordercolor="#666666"
     borderopacity="1.0"
     inkscape:pageopacity="0.0"
     inkscape:pageshadow="2"
     inkscape:zoom="5.6"
     inkscape:cx="23.243791"
     inkscape:cy="-7.8103538"
     inkscape:document-units="mm"
     inkscape:current-layer="layer1"
     showgrid="false"
     fit-margin-top="0"
     fit-margin-left="0"
     fit-margin-right="0"
     fit-margin-bottom="0"
     inkscape:window-width="1920"
     inkscape:window-height="1017"
     inkscape:window-x="1912"
     inkscape:window-y="-8"
     inkscape:window-maximized="1"
     units="px" />
  <metadata
     id="metadata1040">
    <rdf:RDF>
      <cc:Work
         rdf:about="">
        <dc:format>image/svg+xml</dc:format>
        <dc:type
           rdf:resource="http://purl.org/dc/dcmitype/StillImage" />
        <dc:title></dc:title>
      </cc:Work>
    </rdf:RDF>
  </metadata>
  <g
     inkscape:label="Calque 1"
     inkscape:groupmode="layer"
     id="layer1"
     transform="translate(-101.58849,-145.26146)">
    <path
       inkscape:connector-curvature="0"
       style="clip-rule:evenodd;fill:#333333;fill-rule:evenodd;stroke-width:0.26458332"
       d="m 107.35297,147.12228 1.8661,1.86611 -1.89071,1.89044 v 2.7e-4 c -0.0614,0.0638 -0.0998,0.15108 -0.0998,0.24738 0,0.19659 0.15955,0.35613 0.3564,0.35613 0.0958,0 0.18309,-0.0384 0.24712,-0.0998 h 2.6e-4 l 2.13678,-2.1373 v 0 c 0.0672,-0.0646 0.10901,-0.15557 0.10901,-0.25612 0,-2.6e-4 0,-7.9e-4 0,-7.9e-4 0,-5.3e-4 0,-5.3e-4 0,-0.001 0,-0.10028 -0.0418,-0.19129 -0.10901,-0.25612 l 0.0749,-2.6e-4 -2.13677,-2.13678 -0.0759,8e-4 c -0.064,-0.0611 -0.15054,-0.099 -0.24632,-0.099 -0.19685,0 -0.3564,0.15955 -0.3564,0.35613 0,0.10769 0.0484,0.20479 0.12436,0.26988"
       id="path191" />
    <line
       style="fill:none;stroke:#333333;stroke-width:0.26458332;stroke-miterlimit:10"
       stroke-miterlimit="10"
       x1="101.72078"
       y1="145.26146"
       x2="101.72078"
       y2="152.40521"
       id="line211" />
  </g>
</svg>
