<?xml version="1.0" encoding="UTF-8" standalone="no"?>
<!-- Created with Inkscape (http://www.inkscape.org/) -->

<svg
   xmlns:dc="http://purl.org/dc/elements/1.1/"
   xmlns:cc="http://creativecommons.org/ns#"
   xmlns:rdf="http://www.w3.org/1999/02/22-rdf-syntax-ns#"
   xmlns:svg="http://www.w3.org/2000/svg"
   xmlns="http://www.w3.org/2000/svg"
   xmlns:sodipodi="http://sodipodi.sourceforge.net/DTD/sodipodi-0.dtd"
   xmlns:inkscape="http://www.inkscape.org/namespaces/inkscape"
   width="45"
   height="27.000011"
   viewBox="0 0 11.90625 7.1437531"
   version="1.1"
   id="svg5235"
   inkscape:version="0.92.2 (5c3e80d, 2017-08-06)"
   sodipodi:docname="select-bot.svg">
  <defs
     id="defs5229" />
  <sodipodi:namedview
     id="base"
     pagecolor="#ffffff"
     bordercolor="#666666"
     borderopacity="1.0"
     inkscape:pageopacity="0.0"
     inkscape:pageshadow="2"
     inkscape:zoom="15.839192"
     inkscape:cx="18.877475"
     inkscape:cy="8.1796142"
     inkscape:document-units="mm"
     inkscape:current-layer="layer1"
     showgrid="false"
     fit-margin-top="0"
     fit-margin-left="0"
     fit-margin-right="0"
     fit-margin-bottom="0"
     inkscape:window-width="1920"
     inkscape:window-height="1017"
     inkscape:window-x="-8"
     inkscape:window-y="-8"
     inkscape:window-maximized="1"
     units="px" />
  <metadata
     id="metadata5232">
    <rdf:RDF>
      <cc:Work
         rdf:about="">
        <dc:format>image/svg+xml</dc:format>
        <dc:type
           rdf:resource="http://purl.org/dc/dcmitype/StillImage" />
        <dc:title></dc:title>
      </cc:Work>
    </rdf:RDF>
  </metadata>
  <g
     inkscape:label="Calque 1"
     inkscape:groupmode="layer"
     id="layer1"
     transform="translate(95.343305,-49.255505)">
    <path
       inkscape:connector-curvature="0"
       style="clip-rule:evenodd;fill:#333333;fill-rule:evenodd;stroke-width:0.26458332"
       d="m -86.711272,51.815348 -1.866106,1.866107 -1.890448,-1.890713 h -2.65e-4 c -0.06377,-0.06138 -0.151077,-0.09975 -0.247385,-0.09975 -0.196586,0 -0.35613,0.159544 -0.35613,0.356394 0,0.09578 0.03836,0.183092 0.09975,0.247121 v 2.64e-4 l 2.137305,2.136775 v 0 c 0.06456,0.0672 0.155575,0.109009 0.256116,0.109009 2.65e-4,0 7.94e-4,0 7.94e-4,0 5.29e-4,0 5.29e-4,0 0.0011,0 0.100277,0 0.191294,-0.0418 0.256117,-0.109009 h 2.63e-4 l 2.136775,-2.136775 -7.94e-4,-0.0011 c 0.06112,-0.06403 0.09895,-0.150546 0.09895,-0.246325 0,-0.19685 -0.159544,-0.356394 -0.356129,-0.356394 -0.107686,0 -0.204788,0.04815 -0.269875,0.124354"
       id="path354" />
    <line
       style="fill:none;stroke:#333333;stroke-width:0.26458332;stroke-miterlimit:10"
       stroke-miterlimit="10"
       x1="-95.211014"
       y1="49.255505"
       x2="-95.211014"
       y2="56.399258"
       id="line356" />
  </g>
</svg>
